# xmcd
#
# Track frame offsets:
#	150
#	18456
#	37298
#	54078
#	72323
#	88305
#	104082
#	129694
#	149446
#	164608
#
# Disc length: 2466 seconds
#
# Revision: 1
# Processed by: cddbd v1.4PL0 Copyright (c) Steve Scherf et al.
# Submitted via: audiograbber 1.82.02
#
DISCID=9a09a00a
DTITLE=Manon Brunet - Noël Bleu
DYEAR=1997
DGENRE=Blues
TTITLE0=Avé Maria
TTITLE1=Le Plus Beau Moment
TTITLE2=Joyeux Noël
TTITLE3=What A Wonderful World
TTITLE4=Amazing Grace
TTITLE5=Glory Alléluia
TTITLE6=God Bless The Child
TTITLE7=Minuit Chrétien
TTITLE8=La Quête
TTITLE9=Mercedes Benz
EXTD=
EXTT0=
EXTT1=
EXTT2=
EXTT3=
EXTT4=
EXTT5=
EXTT6=
EXTT7=
EXTT8=
EXTT9=
PLAYORDER=
